<?xml version="1.0" encoding="UTF-8"?>
<svg width="470px" height="216px" viewBox="0 0 470 216" version="1.1" xmlns="http://www.w3.org/2000/svg" xmlns:xlink="http://www.w3.org/1999/xlink">
    <title>Group</title>
    <g id="Symbols" stroke="none" stroke-width="1" fill="none" fill-rule="evenodd">
        <g id="Logo" fill="#000000" fill-rule="nonzero">
            <g id="Group">
                <path d="M26.595904,164.851064 L26.595904,104.723404 L45.5106805,104.723404 L45.5106805,98.0212766 L0,98.0212766 L0,104.723404 L18.9147765,104.723404 L18.9147765,164.851064 L26.595904,164.851064 Z M58.4725831,103.478723 C61.4810247,103.478723 62.9852455,102.170213 62.9852455,99.5531915 L62.9852455,99.5531915 L62.9852455,98.0212766 C62.9852455,95.4042553 61.4810247,94.0957447 58.4725831,94.0957447 C55.4641415,94.0957447 53.9599207,95.4042553 53.9599207,98.0212766 L53.9599207,98.0212766 L53.9599207,99.5531915 C53.9599207,102.170213 55.4641415,103.478723 58.4725831,103.478723 Z M62.1211187,164.851064 L62.1211187,115.446809 L54.8240476,115.446809 L54.8240476,164.851064 L62.1211187,164.851064 Z M84.0123321,164.851064 L84.0123321,131.148936 C84.0123321,127.893617 84.9884754,125.37234 86.9407619,123.585106 C88.8930485,121.797872 91.3094032,120.904255 94.189826,120.904255 C97.4543052,120.904255 99.8706599,121.957447 101.43889,124.06383 C103.00712,126.170213 103.791235,129.202128 103.791235,133.159574 L103.791235,133.159574 L103.791235,164.851064 L111.088307,164.851064 L111.088307,131.148936 C111.088307,127.893617 112.06445,125.37234 114.016736,123.585106 C115.969023,121.797872 118.385378,120.904255 121.2658,120.904255 C124.53028,120.904255 126.946634,121.957447 128.514865,124.06383 C130.083095,126.170213 130.86721,129.202128 130.86721,133.159574 L130.86721,133.159574 L130.86721,164.851064 L138.164281,164.851064 L138.164281,132.680851 C138.164281,126.425532 136.884093,121.797872 134.323717,118.797872 C131.763341,115.797872 128.370843,114.297872 124.146223,114.297872 C120.561697,114.297872 117.681274,115.06383 115.504955,116.595745 C113.328635,118.12766 111.7284,120.425532 110.70425,123.489362 L110.70425,123.489362 L109.744109,123.489362 C108.655949,120.361702 107.039712,118.047872 104.895397,116.547872 C102.751083,115.047872 100.1427,114.297872 97.0702488,114.297872 C93.6777509,114.297872 91.0533656,115.06383 89.1970932,116.595745 C87.3408207,118.12766 85.932614,120.425532 84.972473,123.489362 L84.972473,123.489362 L84.0123321,123.489362 L84.0123321,115.446809 L76.715261,115.446809 L76.715261,164.851064 L84.0123321,164.851064 Z M169.176833,166 C173.78551,166 177.578067,164.946809 180.554503,162.840426 C183.53094,160.734043 185.787272,157.989362 187.323497,154.606383 L187.323497,154.606383 L182.330764,150.968085 C181.114586,153.840426 179.450341,155.994681 177.338031,157.430851 C175.225721,158.867021 172.505322,159.585106 169.176833,159.585106 C165.27226,159.585106 162.215811,158.388298 160.007487,155.994681 C157.799163,153.601064 156.695001,149.978723 156.695001,145.12766 L156.695001,145.12766 L156.695001,141.968085 L188.475666,141.968085 L188.475666,140.148936 C188.475666,135.553191 188.011598,131.62766 187.083462,128.37234 C186.155326,125.117021 184.859135,122.43617 183.194891,120.329787 C181.530647,118.223404 179.498348,116.691489 177.097996,115.734043 C174.697644,114.776596 172.057256,114.297872 169.176833,114.297872 C166.29641,114.297872 163.608016,114.776596 161.111649,115.734043 C158.615283,116.691489 156.470968,118.223404 154.678705,120.329787 C152.886442,122.43617 151.478235,125.117021 150.454085,128.37234 C149.429935,131.62766 148.91786,135.553191 148.91786,140.148936 C148.91786,144.744681 149.429935,148.670213 150.454085,151.925532 C151.478235,155.180851 152.886442,157.861702 154.678705,159.968085 C156.470968,162.074468 158.615283,163.606383 161.111649,164.56383 C163.608016,165.521277 166.29641,166 169.176833,166 Z M180.698525,136.414894 L156.695001,136.414894 L156.695001,135.170213 C156.695001,130.319149 157.783161,126.648936 159.95948,124.159574 C162.1358,121.670213 165.208251,120.425532 169.176833,120.425532 C176.857961,120.425532 180.698525,125.340426 180.698525,135.170213 L180.698525,135.170213 L180.698525,136.414894 Z M215.551641,164.851064 L229.953755,128.659574 L237.34684,107.787234 L238.499009,107.787234 L237.730896,128.276596 L238.018939,164.851064 L249.924686,164.851064 L277.096675,98.0212766 L266.919181,98.0212766 L251.748954,138.808511 L246.372165,155.946809 L245.219996,155.946809 L246.084122,138.808511 L245.700066,98.0212766 L234.082361,98.0212766 L217.567937,138.808511 L212.191147,155.659574 L211.134992,155.659574 L212.191147,138.808511 L212.671218,98.0212766 L202.973794,98.0212766 L203.453865,164.851064 L215.551641,164.851064 Z M288.426338,166 C300.524114,166 308.173236,158.37234 311.373706,143.117021 C311.757763,141.265957 312.045805,139.367021 312.237833,137.420213 C312.429861,135.473404 312.525875,133.765957 312.525875,132.297872 C312.525875,126.297872 311.101666,121.734043 308.253248,118.606383 C305.40483,115.478723 301.228217,113.914894 295.723409,113.914894 C283.625633,113.914894 275.97651,121.542553 272.776041,136.797872 C272.391984,138.648936 272.103942,140.547872 271.911914,142.494681 C271.719885,144.441489 271.623871,146.148936 271.623871,147.617021 C271.623871,153.617021 273.04808,158.180851 275.896499,161.308511 C278.744917,164.43617 282.92153,166 288.426338,166 Z M289.194451,157.957447 C286.506056,157.957447 284.48976,157.239362 283.145563,155.803191 C281.801365,154.367021 281.129267,152.021277 281.129267,148.765957 C281.129267,148.06383 281.161271,147.329787 281.225281,146.56383 C281.28929,145.797872 281.385304,145.06383 281.513323,144.361702 L281.513323,144.361702 L283.529619,134.308511 C284.425751,130.031915 285.753946,126.904255 287.514204,124.925532 C289.274462,122.946809 291.754826,121.957447 294.955296,121.957447 C297.643691,121.957447 299.659987,122.675532 301.004184,124.111702 C302.348381,125.547872 303.02048,127.893617 303.02048,131.148936 C303.02048,131.851064 302.988475,132.585106 302.924466,133.351064 C302.860457,134.117021 302.764442,134.851064 302.636424,135.553191 L302.636424,135.553191 L300.620128,145.606383 C299.723996,149.882979 298.395801,153.010638 296.635543,154.989362 C294.875284,156.968085 292.39492,157.957447 289.194451,157.957447 Z M327.312046,164.851064 L333.072891,136.12766 C333.905014,132.042553 335.297218,129.074468 337.249505,127.223404 C339.201791,125.37234 341.970197,124.446809 345.554724,124.446809 L345.554724,124.446809 L349.971372,124.446809 L351.987668,115.06383 L349.203259,115.06383 C345.810761,115.06383 343.090362,115.957447 341.042061,117.744681 C338.993761,119.531915 337.42553,122.117021 336.337371,125.5 L336.337371,125.5 L335.185201,125.5 L337.297512,115.06383 L327.792116,115.06383 L317.806651,164.851064 L327.312046,164.851064 Z M360.72495,164.851064 L363.98943,148.574468 L371.286501,141.010638 L377.047346,159.776596 C377.559422,161.56383 378.343537,162.856383 379.399692,163.654255 C380.455847,164.452128 381.91206,164.851064 383.768333,164.851064 L383.768333,164.851064 L389.625193,164.851064 L391.161418,157 L385.688615,157 L378.967628,135.361702 L398.362475,115.06383 L387.032812,115.06383 L373.398811,129.808511 L366.197754,139.095745 L365.141599,139.095745 L367.829993,129.138298 L374.935036,94 L365.429641,94 L351.219555,164.851064 L360.72495,164.851064 Z M413.72473,166 C419.485576,166 424.062248,164.515957 427.454746,161.547872 C430.847244,158.579787 432.543493,154.510638 432.543493,149.340426 C432.543493,145.893617 431.663363,143.196809 429.903105,141.25 C428.142847,139.303191 425.214417,137.62766 421.117815,136.223404 L421.117815,136.223404 L416.989209,134.787234 C415.132937,134.148936 413.804742,133.367021 413.004625,132.441489 C412.204507,131.515957 411.804448,130.287234 411.804448,128.755319 C411.804448,126.521277 412.492549,124.81383 413.868751,123.632979 C415.244953,122.452128 417.277252,121.861702 419.965646,121.861702 C424.254276,121.861702 427.518755,123.617021 429.759084,127.12766 L429.759084,127.12766 L436,121.478723 C434.079718,118.861702 431.919401,116.946809 429.519049,115.734043 C427.118696,114.521277 424.190266,113.914894 420.733759,113.914894 C417.661308,113.914894 414.988916,114.329787 412.716582,115.159574 C410.444249,115.989362 408.555972,117.138298 407.051751,118.606383 C405.54753,120.074468 404.411363,121.781915 403.64325,123.728723 C402.875138,125.675532 402.491081,127.765957 402.491081,130 C402.491081,133.319149 403.339206,135.968085 405.035455,137.946809 C406.731704,139.925532 409.628129,141.617021 413.72473,143.021277 L413.72473,143.021277 L417.853336,144.457447 C419.901637,145.159574 421.309844,145.989362 422.077956,146.946809 C422.846069,147.904255 423.230126,149.117021 423.230126,150.585106 C423.230126,153.074468 422.414006,154.941489 420.781766,156.18617 C419.149527,157.430851 416.893195,158.053191 414.012773,158.053191 C411.452397,158.053191 409.324084,157.574468 407.627835,156.617021 C405.931586,155.659574 404.315349,153.93617 402.779124,151.446809 L402.779124,151.446809 L396.538207,157.095745 C398.39448,159.968085 400.714821,162.170213 403.499229,163.702128 C406.283638,165.234043 409.692138,166 413.72473,166 Z" id="TimeWorks"></path>
                <g id="reloj" transform="translate(294.000000, 0.000000)">
                    <path d="M156.648384,70.0655801 L171.84551,51.8488638 C173.320354,50.0761101 173.087702,47.4378847 171.334507,45.9536216 L159.082915,35.6055902 C157.321411,34.1255081 154.699928,34.3554644 153.233393,36.128218 L139.091508,53.0906275 C127.400772,44.4902636 113.603709,38.7037281 98.6018448,36.6257597 L98.6018448,21.5824397 L116.665569,21.5824397 C118.69296,21.5824397 120.333984,19.9309357 120.333984,17.8905966 L120.333984,3.69184313 C120.333984,1.65150401 118.69296,0 116.665569,0 L56.1512624,0 C54.1238711,0 52.4828474,1.65150401 52.4828474,3.69184313 L52.4828474,17.8905966 C52.4828474,19.9309357 54.1238711,21.5824397 56.1512624,21.5824397 L74.2149864,21.5824397 L74.2149864,36.5588634 C59.3502199,38.5992025 45.4742222,44.3313848 33.6588516,52.998645 L19.5875928,36.128218 C18.1127487,34.3554644 15.4995743,34.1255081 13.7380704,35.6055902 L1.48647835,45.9536216 C-0.275025559,47.4378847 -0.503522528,50.0761101 0.975476036,51.8488638 L16.1102844,70.0028648 C11.2162947,76.2493128 7.05349542,83.1730866 3.8753103,90.7532809 C2.30906744,94.4702102 4.03733542,98.7641206 7.73898633,100.340366 C11.4489462,101.924974 15.6989898,100.168944 17.2652327,96.452015 C29.0390584,68.4349812 56.1803438,50.3311525 86.4167246,50.3311525 C127.791294,50.3311525 161.459284,84.2057992 161.459284,125.852967 C161.459284,167.491773 127.791294,201.36642 86.4167246,201.36642 C74.3188487,201.36642 62.781829,198.565135 52.1089433,193.037823 C48.548545,191.18563 44.1572487,192.598815 42.3168095,196.190314 C40.4763703,199.781813 41.880588,204.192792 45.4492952,206.044985 C58.0166285,212.563199 72.1875951,216 86.4167246,216 C135.80946,216 176,175.561147 176,125.852967 C175.991691,104.784793 168.721333,85.4350199 156.648384,70.0655801 Z" id="Path"></path>
                </g>
            </g>
        </g>
    </g>
</svg>